<svg id="Calque_1" data-name="Calque 1" xmlns="http://www.w3.org/2000/svg" viewBox="0 0 595.28 841.89"><defs><style>.cls-1{fill:#fff;}</style></defs><path d="M253.34,510.91c-1.16-1.4-2.31-2.81-3.78-4.6-8.34-.61-16.55-4-24.89-6.91-3.13-1.1-6.32-2.07-9.53-2.92-5.58-1.47-10.2-4.73-15.08-7.56-4.66-2.7-9.42-5.22-14.29-7.51-5.62-2.65-9.46-7.11-13.09-11.89a12.45,12.45,0,0,0-2.72-2.75,81.49,81.49,0,0,1-22.9-22.87c-.32-.5-1-.74-1.5-1.16a13.11,13.11,0,0,1-1.94-1.93,173,173,0,0,1-19.2-34.88c-3.65-8.8-6.85-17.79-10.14-26.74a6.87,6.87,0,0,0-2.86-4c-1-.59-1.15-1.37-1.07-2.61a33.06,33.06,0,0,0-.43-6.87c-.94-6.18-2-12.34-3.07-18.6l-3.27-1.68c-.22-1.23-.13-2.18-.55-2.76a2.43,2.43,0,0,0-3.2-.74v-.76c.93-1.62,1.64-3.13.83-5.2s.41-4.35,2.75-5.83A12,12,0,0,1,106,329c2.73-.95,3.51-1.77,3.17-4.73-.72-6.35.62-12.5,1.38-18.72,2-16.11,7-31.29,13.48-46.07.83-1.88,1.35-3.91,2-5.86a6,6,0,0,1,.57-1.38c5.22-7.91,10.33-15.9,15.75-23.67,2.5-3.58,5.63-6.73,8.45-10.09.68-.8,1.2-1.75,1.92-2.51,1.21-1.31,2.52-2.53,3.8-3.78.35-.34.86-.58,1.08-1,2.42-4.38,6.1-7.59,9.8-10.83,3.1-2.73,6-5.71,9-8.52a20.17,20.17,0,0,1,2.47-1.67c4.23-2.94,8.49-5.83,12.66-8.84,2.11-1.53,4-3.28,6.08-4.92a6.28,6.28,0,0,1,.81-.45c3.67-2.14,7.32-4.35,11-6.42a57.6,57.6,0,0,1,6.24-3c6.22-2.53,12.38-5.27,18.75-7.34A103.72,103.72,0,0,1,249.11,156c6.62-1.11,13.28-1.9,19.91-2.91a50,50,0,0,0,5.06-1.29h6.79c4.63.8,9.25,1.6,13.88,2.37a1.62,1.62,0,0,0,1.1-.11c2.66-1.89,5.48-.56,8.21-.36.69,0,1.33.83,1.63,1l7.14.73c-1.69,1.18-3,2.08-4.33,3-1.88,1.39-4,1.32-6.15,1.07-2.69-.31-5.37-.85-7.8,1-.25.18-.71.08-1.07.1-1.5.07-3.15-.24-4.47.28-4,1.61-8.26,1.37-12.39,1.73-9.26.81-18.09,3.46-27,5.81-5.19,1.37-9.43,4.62-13.84,7.51a64.15,64.15,0,0,1-6.71,3.79,12,12,0,0,1-7.13,1.17,5,5,0,0,0-3.26.54c-4.51,3-9.65,4.21-14.85,5.07-6.52,1.07-11.5,4.7-16.31,8.86a68.3,68.3,0,0,1-6.7,4.84c-2,1.37-4.14,2.63-5.19,5a2.89,2.89,0,0,1-1.06,1A59.31,59.31,0,0,0,162.62,218c-2.93,3.65-6.31,6.94-9.48,10.4a21.62,21.62,0,0,0-1.55,1.89,135.11,135.11,0,0,0-10.73,17.4c-1.75,3.4-4.13,6.48-5.79,9.91a93.05,93.05,0,0,0-3.83,10.19c-2,5.74-4,11.49-5.83,17.29a38.83,38.83,0,0,0-.93,6.23,8.22,8.22,0,0,1-.35,2.19c-2.11,4.66-2.39,9.69-3.21,14.64-1.34,8.14-.84,16.28-.64,24.43,0,1.76.11,3.53,0,5.28-.51,7.52.52,14.91,1.73,22.29a18.15,18.15,0,0,0,4.12,9.51c-1.67,2.63-1.56,3.85.41,6A2.26,2.26,0,0,1,127,377c.38,6.91,2.74,13.24,5.72,19.38.4.83,1.19,1.47,1.64,2.28.64,1.13,1.56,2.32,1.61,3.51.13,3.6,1.93,6.25,4.18,8.8a22.3,22.3,0,0,1,2.23,3.39c1.28,2.15,2.44,4.38,3.81,6.47,2.13,3.26,4.5,6.38,5,10.42.05.36.55.77,1,1,3.41,1.57,6.46,3.45,7.26,7.54a1.4,1.4,0,0,0,.56.72c5.86,4.39,9.95,10.43,14.81,15.76a13.54,13.54,0,0,0,2.91,1.87c.92.58,1.9,1.08,2.76,1.73,1.27,1,2.43,2.07,3.67,3.07,3.14,2.51,6.22,5.09,9.47,7.45,2.36,1.72,5,3.1,7.43,4.68,1.31.83,2.55,1.8,3.87,2.63a11,11,0,0,0,3.37,1.78c5.28,1.05,10,3.41,14.87,5.61,2.79,1.27,5.73,2.24,8.38,3.73a15.43,15.43,0,0,0,4.83,1.79,1.65,1.65,0,0,1,1,.75c1.37,2.69,3.9,1.82,6.08,2.06a19.06,19.06,0,0,1,3.18.55c3.73,1.07,7.42,2.27,11.16,3.3,2.24.61,4.54,1,6.94,1.49l.2-1,.39-.06a6.47,6.47,0,0,0,.84,2.26c.37.4,1.3.29,2.36.47l.29,1.19,5.42-2.05.33,1.76c.19.07.29.12.3.1,1.36-2.05,3-.1,4.46-.21a29.77,29.77,0,0,1,5.38.55v-1.91l10.32.5-1.37.89,2.59.29c.73-1.33,1.51-2.57,3.42-1.9a2.05,2.05,0,0,0,1.27-.25c1.66-.71,3.11-.91,4.09,1.08.17.33,1.15.68,1.31.53a13,13,0,0,0,1.55-2.12c2.34.16,5.28-1.52,8,.87a10.18,10.18,0,0,1,7.19-2.64c2.6,0,5.17-1.25,7.77-1.9,2.25-.55,4.54-1.55,6.75-1.42,2.95.16,5.09-1,7.37-2.45a4.2,4.2,0,0,1,2.92-.42c1.58.37,2.52-.47,3.6-1.26.48-.35,1.08-.86,1.57-.79a4.35,4.35,0,0,0,2.89-.68c5.36-2.78,11.26-4.13,17-5.92-1.69,2.21-3,4.72-6,5.38-.46.1-.83.55-1.27.77-2.29,1.13-4.55,2.33-6.9,3.31-1.13.48-2.4.51-3,1.89-.14.33-.77.53-1.22.65-2.26.62-4.8.74-6.76,1.87A27.18,27.18,0,0,1,334.68,500c-3.68.12-7.21,1.1-9.94,3.9a1.57,1.57,0,0,1-.78.42c-2.2.36-4.39.71-6.59,1-1.05.15-2.11.19-3.17.29a3.32,3.32,0,0,0-1.41.22c-2.14,1.47-4.54,1.47-6.91,1.09a23.49,23.49,0,0,0-14.51,1.88,10.83,10.83,0,0,1-7.53.76c-4.46-1.08-8.88-.42-13.28.31a17.45,17.45,0,0,1-10.3-1.31c-1.48-.66-3.08-1.05-4.63-1.57-1.28-.43-1.54.24-1.5,1.34,0,.85,0,1.72,0,2.58Z"/><path d="M461.91,311.76l-3.65-.33c.1.1-.06,0-.05-.08.11-2.72-1.9-5-1.88-7.53a8.75,8.75,0,0,0-1.11-5.19l-1.46-.12v-.26L455,298l.37-.51c-.66-.61-1.32-1.21-2-1.83a2.48,2.48,0,0,1-.55-.62c-1-1.93-2-3.82-2.81-5.82-1.78-4.61-3.78-9.19-5-14a44,44,0,0,0-5.78-13.37c-3.69-5.76-7.37-11.56-9.23-18.25a3.93,3.93,0,0,1,.05-2.47,3.91,3.91,0,0,0-.91-5c-3.44-2.89-6.05-6.65-9.94-9.09-2.77-1.75-4.91-4.1-5.26-7.64-.05-.49-.68-1-1.12-1.36-3.49-3.2-7-6.38-10.82-9.86l2.08-.38.12-.35c-1.1-.47-2.17-1-3.3-1.39a9.48,9.48,0,0,1-4.37-2.62,3.94,3.94,0,0,0-2.4-.82c-4-.42-6-3.18-8.11-6.62l1.41.16a17.53,17.53,0,0,0-.67-2.66,1.65,1.65,0,0,0-1.15-.92c-2.12,0-2.62-1.31-2.7-3.18h2.54L383.57,188l1.22-3.3c.79.5,1.74.77,2,1.34.51,1.16,1.33,1.34,2.4,1.62a14.08,14.08,0,0,1,3.13,1.61c1.31.72,2.6,1.47,3.89,2.23a6.9,6.9,0,0,1,.95.78c1.15,1,2,2.37,3.66,2.88a6.55,6.55,0,0,1,2.59,2.07c1.2,1.35,2.24,2.85,3.44,4.41l-1.33.6c1.34,1,2.58,1.91,3.8,2.84.89.68,1.76,1.4,2.64,2.1l-.25.43,1.35-.31-.22,1.24a16.27,16.27,0,0,1,2.06,1.32c2.59,2.37,5.22,4.71,7.69,7.21a47.07,47.07,0,0,1,3.59,4.56c.23.3.33.75.61.94,3.74,2.43,5.73,6.41,8,9.89A209.31,209.31,0,0,1,446,252.16c1.73,3.32,2.76,7,4,10.53.19.53,1,1.22-.4,1.78-.89.36,0,3.68,1,4.36a5.48,5.48,0,0,1,1.28,1.7c1,1.78,1.85,3.67,3,5.38,1.4,2.17.83,4.29.27,6.74,2.8.4,3.1,3,3.3,5.09.31,3.42,1.64,6.74.77,10.33-.29,1.2.9,2.72,1.29,4.13.53,1.91.95,3.86,1.42,5.79Z"/><path d="M160.27,239.41c.64,0,1.26-.08,1.87-.08q35.64,0,71.28,0a2.61,2.61,0,0,1,2.84,1.93q11.87,28.62,23.83,57.19c.28.68.58,1.35,1,2.4l25.82-61.38H383.8c-.45,3.2-.2,6.08,2.58,8.14,2-1.68,2.09-2.37.38-4.64a3.72,3.72,0,0,0,4.16-2.48c.45-1.06,1.11-1.15,2-1.13,2.13,0,4.26,0,6.66,0-.29-1.33-.56-2.51-.87-3.91h4.86c1.38,3,1.25,3.45-1.42,5.26a1.89,1.89,0,0,0-.58,1.39c-.05,2.37,0,4.75,0,7.05l-2.66,1.07-.07.54,2.65,1.43v2.65l-1.06-2.25a10.25,10.25,0,0,1-1.43,1.49,6.09,6.09,0,0,1-2.58,1.38c-2.26.18-2.13,0-1.65,2.08s.92,4.35-1.37,6c-.46.34-.2,1.67-.31,3a12.64,12.64,0,0,1-9.65,3.34c-.87-.09-2.25-.76-2.68.82s-1.76,3.25.27,4.71a5.88,5.88,0,0,1,.71.82c-.56.88-1.13,1.76-1.72,2.67,1.59,1.16.71,2.06-.53,3.07,1.39.23,2.5.34,3.59.6,1.8.44,3.61.88,5.36,1.47a4.61,4.61,0,0,0,4.85-1.7l-1.48-1.29a40.59,40.59,0,0,0,5.34-2.74,39.72,39.72,0,0,0,4.27-4v12.23c-3.11,1.88-6.41,1.95-9.83,1.17-4.47-1-8.95-.71-13.46-.09a25.37,25.37,0,0,1-6.14-.25c-2.4-.28-4.71-.44-6.82,1.07a2,2,0,0,1-1.05.19c-.37,0-.76-.2-1.11-.13-2.53.47-5.55-1.35-7.55,1.71-1.49,2.29-3.55,4.22-4,7.15a65.75,65.75,0,0,1-1.38,6.64,4.12,4.12,0,0,0,1.73,4.61c.95.72,2.05,1.26,2.92,2.06a10.61,10.61,0,0,1,1.47,2.19,21.52,21.52,0,0,1-2.33.83,6.9,6.9,0,0,1-1.64,0c-.56,3-1.17,5.81-1.58,8.66-.27,2,1,3.71,2.22,3.07,2.18-1.12,4,.5,5.86,0a13.85,13.85,0,0,0,2.55-1.25,29.21,29.21,0,0,0,3.65.65c3.69.26,7.4.48,11.1.53,2.93.05,5.87-.18,8.8-.27a3.62,3.62,0,0,1,1.48.14c3.46,1.52,7.05.78,10.61.71.31,0,.63,0,.94-.07,3.35-.17,3.66.12,3.66,3.37,0,5.06,0,10.12-.4,15.23a7,7,0,0,1-.27-1.9,4.93,4.93,0,0,0-2.66-5.22c-.66-.36-1.06-1.18-1.62-1.75s-1-1.21-1.55-1.34c-2.73-.62-5.48-1.17-8.25-1.55-4-.54-8-1.45-11.95-1.24-6.56.34-13.09,1.36-19.6,2.28a6,6,0,0,0-4.79,3.82c-.47,1.11-1.71,1.88-2.26,3-.86,1.76-1.44,3.66-2.13,5.49-1.63,4.32.47,8.26,1.28,12.32a5.22,5.22,0,0,0,1.45,2.5c2.42,2.39,4.41,5.32,8.21,5.91,2.1.33,4.07,1.07,6.26.24.69-.26,1.74.47,2.64.72,3.54,1,7.05.66,10.63.06a23.45,23.45,0,0,1,6.89-.23,16.84,16.84,0,0,0,17.58-8.94c.08-.15.2-.27.37-.51a2.65,2.65,0,0,1,.16.59c0,5.34,0,10.68,0,16.29l-2-1.22c-1.31-.77-2.57-1.23-3.67.35-.19.29-.61.42-.94.61-3.29,1.91-3.63,2.65-3,6.64l1.9.22a5.68,5.68,0,0,0-2.08,5.52c.19,1.15-2.85,2.78-4.54,2.42a13.78,13.78,0,0,1-3.43-1.33c-1.74-.89-3.45-1.49-5.44-.83a4.56,4.56,0,0,1-2.05.05c-1.27-.19-2-.73-1-2.05a2.87,2.87,0,0,0-3.72-.56,8.59,8.59,0,0,1-2.53.42l-.12-.69,3.45-.8c-1.68-.72-3.24-1.55-4.9-2.07-2.43-.78-5-1.29-7.4-2-1.07-.32-2-1-3.09-1.34a15.1,15.1,0,0,0-2.43-.42c0,.2.07-.38,0-.4a34.53,34.53,0,0,0-5.64-1.27c-.66-.06-1.45,1-2.14,1.56-.33.28-.51.73-.84,1-2.11,1.75-2.41,3.73-1.81,6.47.51,2.3.7,4.73,1.09,7.1s-.3,5.2-.66,7.79c-.21,1.44-.19,2.63,1.48,3.24-.25.6-.45,1.11-.65,1.6,3.25,2.95,6.8,2.92,9.74-.11a2.51,2.51,0,0,0,.7-1.61q-.07-5.07-.33-10.13c-.06-1.14.34-1.5,1.41-1.3,2.16.41,4.31.85,6.48,1.17a7.58,7.58,0,0,0,2.17-.41c.49,2,2.56,2.26,4.57,2.87,3.48,1,6.86,2.42,10.32,3.54a15.37,15.37,0,0,0,3.29.32s-.09.44-.21,1c3.33,1.13,6.55,2.32,9.82,3.31,2.75.82,5.48.9,8-1.71v18.72H358.3c0-.41-.07-.77-.08-1.13-.16-3.53-1.69-4.63-4.89-3.14-1.85.85-3.41,2.3-5.15,3.42a4.45,4.45,0,0,1-2.13.94c-12.07.05-24.13,0-36.2,0a3.12,3.12,0,0,1-.59-.16V305.48l-.42-.05-3.39,13.22Q292.67,368.84,279.93,419a2,2,0,0,1-2.4,1.86q-19.32-.09-38.65,0c-1.4,0-1.91-.42-2.25-1.78q-9.51-37.91-19.12-75.78c-3.18-12.58-6.35-25.17-9.82-37.74v115.1H160.27ZM356.13,246c-1.21.66-1,.81-2.95,3.93-2.43,3.85-2.83,8.12-3.3,12.4a13.42,13.42,0,0,0,2.45,10A26.64,26.64,0,0,0,365,281.09,8.42,8.42,0,0,0,368,281c.24,0,.48-.07.77-.11l-.62,1.39c2.54,0,4.93.09,7.3,0,1.53-.09,2.93-.6,2.57-2,.78-1.23,1.82-2.2,1.62-2.69a4.49,4.49,0,0,0-2.23-2.19c-2.35-1-3-1.77-3.07-4.27,0-2-1.45-3.14-4.1-3.65-2-.38-2.54,1-3.29,2.42-3.7-1.32-6.26-4.17-6.58-7.76s-.08-7.6,4.35-9.16l-2.38-5C357.8,249.65,357.8,249.65,356.13,246Zm18.78,19.68c1.23-.93,2.31-2.3,4.14-1.15.18.12.94-.24,1-.49a7.19,7.19,0,0,0,.46-3c-.56-2.7-1.53-5.31-2-8-.7-3.62-3.28-5.71-5.76-8-.67.82-1.68,1.5-1.7,2.2-.12,3.88,0,7.76,0,11.64a14,14,0,0,0,.15,3.11,5.56,5.56,0,0,0,1.3,2.44A9.5,9.5,0,0,0,374.91,265.71Zm-50,139.48-.55.54,4.46,4.35.64-.26c.14-.6.61-1.39.38-1.76A6.31,6.31,0,0,0,324.92,405.19ZM340.1,259.11l2.41,2.17c.58-.65,1.7-1.39,1.61-1.92a10.06,10.06,0,0,0-1.61-2.92ZM337.92,388.5c3-1.5,3.07-1.84,1.4-4.77-.81.67-2,1.17-2.23,2S337.6,387.52,337.92,388.5Zm6.44-110.36c-1.33.34-2.89.57-2.6,2.43.1.66,1.19,1.74,1.7,1.67C345.18,282,345.41,280.71,344.36,278.14Zm24.2-31.73c2.9-.4,3.15-.79,2.15-3.1h-2.84C368.12,244.42,368.33,245.36,368.56,246.41Zm-3.8,4.27c.83-1,1.67-1.5,1.65-2s-.82-1.57-1.28-1.57a2.2,2.2,0,0,0-1.77,1.23C363.25,248.87,364.07,249.6,364.76,250.68Zm10.38,19.46c.64-1.38,1.13-2.37,1.53-3.39,0-.1-.6-.66-.74-.59-.89.39-1.73.91-2.63,1.4Zm-32.79,16.71c.6-.17,1.11-.15,1.28-.39a6,6,0,0,0,1.07-2.08c.06-.27-.64-.73-1-1.1a11.83,11.83,0,0,0-1.32,1.88C342.19,285.55,342.35,286.12,342.35,286.85Zm-4.86,106c.87-.32,1.63-.37,1.93-.77a3.4,3.4,0,0,0,.54-2c0-.31-.61-.62-.95-.92a6.47,6.47,0,0,0-1.25,1.44A8.41,8.41,0,0,0,337.49,392.83Zm3,8.13,3.1.64.21-.56c-.52-.8-1-1.59-1.68-2.59Zm58.08-115.69c-2.2-1.3-2.83-1.13-3.92,1Zm-2.27-32.68,2.23-1.76c-.44-.22-.88-.62-1.31-.61C396.06,250.24,395.54,250.85,396.31,252.59ZM355.88,372.26l-2.66,2.05,3.22.56C356.23,373.88,356.09,373.22,355.88,372.26Z"/><path d="M398.63,464.61a17.83,17.83,0,0,1,7.94-7.73l-.54-.34a10,10,0,0,1,1.39-2.83c2-2,4.23-3.91,6.36-5.86a4.69,4.69,0,0,0,.84-1q8-12.42,16-24.86c1.08-1.69,2.09-3.43,3.09-5.17,1.61-2.8,3-5.63,5.52-7.92,3.09-2.79,4.3-6.9,5.48-10.8.73-2.38,2.66-3.68,4-5.53.49-.7,1-1.4,1.46-2.11a37.65,37.65,0,0,1,2.31-3.36c.31-.37,1.09-.32,1.64-.46-1.51,4.38-2.79,8.5-4.36,12.5-2.71,6.94-5,14.1-9,20.44s-7.93,12.82-12.27,19a103.2,103.2,0,0,1-21.14,22.13,36.21,36.21,0,0,1-5.19,2.87c-1,.55-2.07,1.07-3.11,1.6Z"/><path d="M376.24,358.19l.88.85c-.09.13-.14.22-.16.22-3.81-1.2-8,.1-11.72-1.79a4.38,4.38,0,0,0-1.95-.31c-4.57.08-7.57-3.82-6.69-8.28a7.43,7.43,0,0,1,5.73-6.05c3.35-.89,7.17-2.14,10.28-1.32,4.48,1.17,9,.92,13.45,2,2.79.69,4,2.65,4.65,5.06.54,1.93-1.25,5.3-3.13,6.44C383.09,357.71,383.09,357.71,376.24,358.19Z"/><path d="M401.53,300.64c0,.42.06.84.06,1.27v10.46c-5.45,0-10.74,0-16,0a14.19,14.19,0,0,0-2.43.24,12.47,12.47,0,0,1-6.33-.05c-2.66-.83-5.72-.3-8.59-.49a3.43,3.43,0,0,1-2.18-.94,18.77,18.77,0,0,1-2.72-4,4.84,4.84,0,0,1,4.87-6.94,68.9,68.9,0,0,0,14.78.26,5.31,5.31,0,0,1,3,1,3.22,3.22,0,0,0,4.26-.28A4.19,4.19,0,0,1,394,299.8Z"/><path d="M409.34,338.16c-1.63-1.82-.71-3.7-.19-5.59,2.31-.29,3,1.33,3.36,2.87.21,1-.44,2.12-.77,3.46,1.14.71,3.09,1.89,2.95,4a3.31,3.31,0,0,1-3.7,3c1.39,1.78,1.16,3.3-.44,4.64C407.25,348.15,406.75,343,409.34,338.16Z"/><path d="M316.64,161.7c-2.23,1.15-4.51.43-6.44-2a11.5,11.5,0,0,1,2.29.6c1.08.53,5-.36,5.91-1.17a6.68,6.68,0,0,1,2.37-.86l.23.53c-.53.71-1.05,1.43-1.52,2.07a13.87,13.87,0,0,0,3.14,1c.59,0,1.29-.61,1.82-1.08s1-1.59,1.52-1.65a29.59,29.59,0,0,1,4.75.14c-.53,1.61-.43,3.17-2.35,3.39-.21,0-.38.95-.44,1.47a24.21,24.21,0,0,0,0,2.48l-4.06-1.84-1.33,1v-2.08l-2.3,1.3Z"/><path d="M409.46,412.29l-3.75,1c-3-.86-1.7-3.94-2.13-6.13a20.88,20.88,0,0,1,0-5.8,9.41,9.41,0,0,1,1.06-2.5c1.76,1.78,3.39,3.2,3.83,5.62.21,1.15.06,2.71,1.76,3.19.22.06.43.8.34,1.15C410.25,410.11,409.78,411.36,409.46,412.29Z"/><path d="M406.74,361.25c.23.6.39,1.08.58,1.55.68,1.61,1.45,3.19,2,4.83.47,1.33-1.31,4.12-2.82,4.64s-2.78-.38-3.52-2.29a6.39,6.39,0,0,1,1-6.7A17.59,17.59,0,0,1,406.74,361.25Z"/><path d="M411,400.41c2.1,1.54,3.44,1.61,4.54.34.34-.41.22-1.21.32-1.83a5.62,5.62,0,0,1,.36-1.83c.24-.41,1-.51,1.33-.88a5.16,5.16,0,0,0,.69-1.27c2,.25,2.26,1.8,2,3.05a15.09,15.09,0,0,1-1.95,5.19c-1.51,2.37-5.72,2.53-8.5.61C410.22,402.69,410.59,401.62,411,400.41Z"/><path d="M405,312a21.8,21.8,0,0,1-2-2.73,1.73,1.73,0,0,1,.24-1.63,29.09,29.09,0,0,1,4-2.13,3,3,0,0,1,.77,1.44,4.83,4.83,0,0,1-.63,2.47A20.59,20.59,0,0,1,405,312Z"/><path d="M412,240.5a11.11,11.11,0,0,1-.78,2.73c-.52.79-1.38,2-2,1.94a5.91,5.91,0,0,1-2.94-1.74,2.25,2.25,0,0,1,.69-1.85A39,39,0,0,1,412,240.5Z"/><path d="M406.79,267.75c-.43-3.58-.43-3.26,2.53-3.87a1.9,1.9,0,0,1,1.59,1,2.24,2.24,0,0,1-.8,1.92A14.48,14.48,0,0,1,406.79,267.75Z"/><path d="M425.29,375.09c-.59,1.25-1,2.19-1.55,3.29a3.66,3.66,0,0,1-2.44-3.23,4,4,0,0,1,.55-1.44Z"/><path d="M459,366.55l-2.15-1.62c.78-1.65,1.54-3.27,2.3-4.9l.7.22C459.53,362.22,459.27,364.18,459,366.55Z"/><path d="M459.56,356.47l.39-5.56c2.13.43,2.15.89.27,5.51Z"/><path d="M460.29,317.17l-3.2-2.65,3.43-.23C460.45,315.18,460.39,315.92,460.29,317.17Z"/><path class="cls-1" d="M356.13,246c1.67,3.62,1.67,3.62,6.16,2l2.38,5c-4.43,1.56-4.65,5.7-4.35,9.16s2.88,6.44,6.58,7.76c.75-1.41,1.32-2.8,3.29-2.42,2.65.51,4.06,1.69,4.1,3.65.06,2.5.72,3.24,3.07,4.27a4.49,4.49,0,0,1,2.23,2.19c.2.49-.84,1.46-1.62,2.69.36,1.36-1,1.87-2.57,2-2.37.12-4.76,0-7.3,0l.62-1.39c-.29,0-.53.1-.77.11a8.42,8.42,0,0,1-2.95.07,26.64,26.64,0,0,1-12.67-8.74,13.42,13.42,0,0,1-2.45-10c.47-4.28.87-8.55,3.3-12.4C355.15,246.84,354.92,246.69,356.13,246Z"/><path class="cls-1" d="M374.91,265.71a9.5,9.5,0,0,1-2.41-1.29,5.56,5.56,0,0,1-1.3-2.44,14,14,0,0,1-.15-3.11c-.05-3.88-.16-7.76,0-11.64,0-.7,1-1.38,1.7-2.2,2.48,2.3,5.06,4.39,5.76,8,.52,2.7,1.49,5.31,2,8a7.19,7.19,0,0,1-.46,3c-.07.25-.83.61-1,.49C377.22,263.41,376.14,264.78,374.91,265.71Z"/><path class="cls-1" d="M364.76,250.68c-.69-1.08-1.51-1.81-1.4-2.34a2.2,2.2,0,0,1,1.77-1.23c.46,0,1.24,1,1.28,1.57S365.59,249.72,364.76,250.68Z"/><path class="cls-1" d="M375.14,270.14l-1.84-2.58c.9-.49,1.74-1,2.63-1.4.14-.07.78.49.74.59C376.27,267.77,375.78,268.76,375.14,270.14Z"/><path class="cls-1" d="M342.35,286.85c0-.73-.16-1.3,0-1.69a11.83,11.83,0,0,1,1.32-1.88c.35.37,1.05.83,1,1.1a6,6,0,0,1-1.07,2.08C343.46,286.7,343,286.68,342.35,286.85Z"/></svg>